G04 #@! TF.GenerationSoftware,KiCad,Pcbnew,7.0.2*
G04 #@! TF.CreationDate,2024-09-29T20:12:52-04:00*
G04 #@! TF.ProjectId,GPIO_circuit,4750494f-5f63-4697-9263-7569742e6b69,rev?*
G04 #@! TF.SameCoordinates,Original*
G04 #@! TF.FileFunction,Legend,Top*
G04 #@! TF.FilePolarity,Positive*
%FSLAX46Y46*%
G04 Gerber Fmt 4.6, Leading zero omitted, Abs format (unit mm)*
G04 Created by KiCad (PCBNEW 7.0.2) date 2024-09-29 20:12:52*
%MOMM*%
%LPD*%
G01*
G04 APERTURE LIST*
%ADD10C,0.150000*%
%ADD11C,0.100000*%
%ADD12C,0.120000*%
%ADD13C,0.127000*%
G04 APERTURE END LIST*
D10*
X156130666Y-86874619D02*
X156130666Y-87588904D01*
X156130666Y-87588904D02*
X156083047Y-87731761D01*
X156083047Y-87731761D02*
X155987809Y-87827000D01*
X155987809Y-87827000D02*
X155844952Y-87874619D01*
X155844952Y-87874619D02*
X155749714Y-87874619D01*
X157035428Y-86874619D02*
X156844952Y-86874619D01*
X156844952Y-86874619D02*
X156749714Y-86922238D01*
X156749714Y-86922238D02*
X156702095Y-86969857D01*
X156702095Y-86969857D02*
X156606857Y-87112714D01*
X156606857Y-87112714D02*
X156559238Y-87303190D01*
X156559238Y-87303190D02*
X156559238Y-87684142D01*
X156559238Y-87684142D02*
X156606857Y-87779380D01*
X156606857Y-87779380D02*
X156654476Y-87827000D01*
X156654476Y-87827000D02*
X156749714Y-87874619D01*
X156749714Y-87874619D02*
X156940190Y-87874619D01*
X156940190Y-87874619D02*
X157035428Y-87827000D01*
X157035428Y-87827000D02*
X157083047Y-87779380D01*
X157083047Y-87779380D02*
X157130666Y-87684142D01*
X157130666Y-87684142D02*
X157130666Y-87446047D01*
X157130666Y-87446047D02*
X157083047Y-87350809D01*
X157083047Y-87350809D02*
X157035428Y-87303190D01*
X157035428Y-87303190D02*
X156940190Y-87255571D01*
X156940190Y-87255571D02*
X156749714Y-87255571D01*
X156749714Y-87255571D02*
X156654476Y-87303190D01*
X156654476Y-87303190D02*
X156606857Y-87350809D01*
X156606857Y-87350809D02*
X156559238Y-87446047D01*
D11*
X149018666Y-90402619D02*
X149018666Y-91116904D01*
X149018666Y-91116904D02*
X148971047Y-91259761D01*
X148971047Y-91259761D02*
X148875809Y-91355000D01*
X148875809Y-91355000D02*
X148732952Y-91402619D01*
X148732952Y-91402619D02*
X148637714Y-91402619D01*
X149971047Y-90402619D02*
X149494857Y-90402619D01*
X149494857Y-90402619D02*
X149447238Y-90878809D01*
X149447238Y-90878809D02*
X149494857Y-90831190D01*
X149494857Y-90831190D02*
X149590095Y-90783571D01*
X149590095Y-90783571D02*
X149828190Y-90783571D01*
X149828190Y-90783571D02*
X149923428Y-90831190D01*
X149923428Y-90831190D02*
X149971047Y-90878809D01*
X149971047Y-90878809D02*
X150018666Y-90974047D01*
X150018666Y-90974047D02*
X150018666Y-91212142D01*
X150018666Y-91212142D02*
X149971047Y-91307380D01*
X149971047Y-91307380D02*
X149923428Y-91355000D01*
X149923428Y-91355000D02*
X149828190Y-91402619D01*
X149828190Y-91402619D02*
X149590095Y-91402619D01*
X149590095Y-91402619D02*
X149494857Y-91355000D01*
X149494857Y-91355000D02*
X149447238Y-91307380D01*
X133778666Y-90402619D02*
X133778666Y-91116904D01*
X133778666Y-91116904D02*
X133731047Y-91259761D01*
X133731047Y-91259761D02*
X133635809Y-91355000D01*
X133635809Y-91355000D02*
X133492952Y-91402619D01*
X133492952Y-91402619D02*
X133397714Y-91402619D01*
X134683428Y-90735952D02*
X134683428Y-91402619D01*
X134445333Y-90355000D02*
X134207238Y-91069285D01*
X134207238Y-91069285D02*
X134826285Y-91069285D01*
X118030666Y-90402619D02*
X118030666Y-91116904D01*
X118030666Y-91116904D02*
X117983047Y-91259761D01*
X117983047Y-91259761D02*
X117887809Y-91355000D01*
X117887809Y-91355000D02*
X117744952Y-91402619D01*
X117744952Y-91402619D02*
X117649714Y-91402619D01*
X118411619Y-90402619D02*
X119030666Y-90402619D01*
X119030666Y-90402619D02*
X118697333Y-90783571D01*
X118697333Y-90783571D02*
X118840190Y-90783571D01*
X118840190Y-90783571D02*
X118935428Y-90831190D01*
X118935428Y-90831190D02*
X118983047Y-90878809D01*
X118983047Y-90878809D02*
X119030666Y-90974047D01*
X119030666Y-90974047D02*
X119030666Y-91212142D01*
X119030666Y-91212142D02*
X118983047Y-91307380D01*
X118983047Y-91307380D02*
X118935428Y-91355000D01*
X118935428Y-91355000D02*
X118840190Y-91402619D01*
X118840190Y-91402619D02*
X118554476Y-91402619D01*
X118554476Y-91402619D02*
X118459238Y-91355000D01*
X118459238Y-91355000D02*
X118411619Y-91307380D01*
X104314666Y-90253619D02*
X104314666Y-90967904D01*
X104314666Y-90967904D02*
X104267047Y-91110761D01*
X104267047Y-91110761D02*
X104171809Y-91206000D01*
X104171809Y-91206000D02*
X104028952Y-91253619D01*
X104028952Y-91253619D02*
X103933714Y-91253619D01*
X104743238Y-90348857D02*
X104790857Y-90301238D01*
X104790857Y-90301238D02*
X104886095Y-90253619D01*
X104886095Y-90253619D02*
X105124190Y-90253619D01*
X105124190Y-90253619D02*
X105219428Y-90301238D01*
X105219428Y-90301238D02*
X105267047Y-90348857D01*
X105267047Y-90348857D02*
X105314666Y-90444095D01*
X105314666Y-90444095D02*
X105314666Y-90539333D01*
X105314666Y-90539333D02*
X105267047Y-90682190D01*
X105267047Y-90682190D02*
X104695619Y-91253619D01*
X104695619Y-91253619D02*
X105314666Y-91253619D01*
D10*
X128688666Y-79837619D02*
X128688666Y-80551904D01*
X128688666Y-80551904D02*
X128641047Y-80694761D01*
X128641047Y-80694761D02*
X128545809Y-80790000D01*
X128545809Y-80790000D02*
X128402952Y-80837619D01*
X128402952Y-80837619D02*
X128307714Y-80837619D01*
X129688666Y-80837619D02*
X129117238Y-80837619D01*
X129402952Y-80837619D02*
X129402952Y-79837619D01*
X129402952Y-79837619D02*
X129307714Y-79980476D01*
X129307714Y-79980476D02*
X129212476Y-80075714D01*
X129212476Y-80075714D02*
X129117238Y-80123333D01*
X143233095Y-61955619D02*
X143233095Y-62765142D01*
X143233095Y-62765142D02*
X143280714Y-62860380D01*
X143280714Y-62860380D02*
X143328333Y-62908000D01*
X143328333Y-62908000D02*
X143423571Y-62955619D01*
X143423571Y-62955619D02*
X143614047Y-62955619D01*
X143614047Y-62955619D02*
X143709285Y-62908000D01*
X143709285Y-62908000D02*
X143756904Y-62860380D01*
X143756904Y-62860380D02*
X143804523Y-62765142D01*
X143804523Y-62765142D02*
X143804523Y-61955619D01*
X144804523Y-62955619D02*
X144233095Y-62955619D01*
X144518809Y-62955619D02*
X144518809Y-61955619D01*
X144518809Y-61955619D02*
X144423571Y-62098476D01*
X144423571Y-62098476D02*
X144328333Y-62193714D01*
X144328333Y-62193714D02*
X144233095Y-62241333D01*
D12*
X157159000Y-85852000D02*
X157159000Y-86537000D01*
X157159000Y-85167000D02*
X155769000Y-85167000D01*
X155855724Y-85167000D02*
X155769000Y-85167000D01*
X157159000Y-85167000D02*
X157159000Y-85292000D01*
X157159000Y-86537000D02*
X156464000Y-86537000D01*
X157159000Y-85167000D02*
X157072276Y-85167000D01*
X155769000Y-85167000D02*
X155769000Y-85292000D01*
X129307000Y-78485000D02*
X123307000Y-78485000D01*
X123307000Y-62485000D02*
X129307000Y-62485000D01*
X129307000Y-78065000D02*
X123307000Y-78065000D01*
X129307000Y-78185000D02*
X123307000Y-78185000D01*
X129307000Y-73405000D02*
X123307000Y-73405000D01*
X132364071Y-65025000D02*
X131967000Y-65025000D01*
X129307000Y-63245000D02*
X123307000Y-63245000D01*
X129307000Y-70865000D02*
X123307000Y-70865000D01*
X132364071Y-70865000D02*
X131967000Y-70865000D01*
X134677000Y-78105000D02*
X134677000Y-79375000D01*
X129307000Y-75945000D02*
X123307000Y-75945000D01*
X132364071Y-75185000D02*
X131967000Y-75185000D01*
X132364071Y-68325000D02*
X131967000Y-68325000D01*
X123307000Y-68325000D02*
X123307000Y-67565000D01*
X131967000Y-69215000D02*
X129307000Y-69215000D01*
X123307000Y-65025000D02*
X129307000Y-65025000D01*
X123307000Y-73405000D02*
X123307000Y-72645000D01*
X123307000Y-75945000D02*
X123307000Y-75185000D01*
X131967000Y-64135000D02*
X129307000Y-64135000D01*
X129307000Y-68325000D02*
X123307000Y-68325000D01*
X134677000Y-79375000D02*
X133407000Y-79375000D01*
X123307000Y-67565000D02*
X129307000Y-67565000D01*
X129307000Y-65785000D02*
X123307000Y-65785000D01*
X129307000Y-61535000D02*
X129307000Y-79435000D01*
X132364071Y-62485000D02*
X131967000Y-62485000D01*
X123307000Y-70105000D02*
X129307000Y-70105000D01*
X129307000Y-78305000D02*
X123307000Y-78305000D01*
X123307000Y-63245000D02*
X123307000Y-62485000D01*
X132364071Y-73405000D02*
X131967000Y-73405000D01*
X132364071Y-65785000D02*
X131967000Y-65785000D01*
X132364071Y-70105000D02*
X131967000Y-70105000D01*
X129307000Y-79435000D02*
X131967000Y-79435000D01*
X123307000Y-65785000D02*
X123307000Y-65025000D01*
X123307000Y-77725000D02*
X129307000Y-77725000D01*
X132297000Y-78485000D02*
X131967000Y-78485000D01*
X132364071Y-67565000D02*
X131967000Y-67565000D01*
X129307000Y-77825000D02*
X123307000Y-77825000D01*
X131967000Y-79435000D02*
X131967000Y-61535000D01*
X131967000Y-61535000D02*
X129307000Y-61535000D01*
X131967000Y-66675000D02*
X129307000Y-66675000D01*
X129307000Y-77945000D02*
X123307000Y-77945000D01*
X131967000Y-74295000D02*
X129307000Y-74295000D01*
X123307000Y-75185000D02*
X129307000Y-75185000D01*
X132364071Y-72645000D02*
X131967000Y-72645000D01*
X132364071Y-75945000D02*
X131967000Y-75945000D01*
X123307000Y-72645000D02*
X129307000Y-72645000D01*
X132364071Y-63245000D02*
X131967000Y-63245000D01*
X129307000Y-78425000D02*
X123307000Y-78425000D01*
X123307000Y-78485000D02*
X123307000Y-77725000D01*
X132297000Y-77725000D02*
X131967000Y-77725000D01*
X123307000Y-70865000D02*
X123307000Y-70105000D01*
X131967000Y-71755000D02*
X129307000Y-71755000D01*
X131967000Y-76835000D02*
X129307000Y-76835000D01*
D13*
X140655000Y-63603000D02*
X153985000Y-63603000D01*
X140655000Y-79653000D02*
X140655000Y-63603000D01*
X153985000Y-63603000D02*
X153985000Y-79653000D01*
X153985000Y-79653000D02*
X140655000Y-79653000D01*
M02*
