G04 #@! TF.GenerationSoftware,KiCad,Pcbnew,7.0.2*
G04 #@! TF.CreationDate,2024-09-29T20:12:52-04:00*
G04 #@! TF.ProjectId,GPIO_circuit,4750494f-5f63-4697-9263-7569742e6b69,rev?*
G04 #@! TF.SameCoordinates,Original*
G04 #@! TF.FileFunction,Copper,L1,Top*
G04 #@! TF.FilePolarity,Positive*
%FSLAX46Y46*%
G04 Gerber Fmt 4.6, Leading zero omitted, Abs format (unit mm)*
G04 Created by KiCad (PCBNEW 7.0.2) date 2024-09-29 20:12:52*
%MOMM*%
%LPD*%
G01*
G04 APERTURE LIST*
G04 Aperture macros list*
%AMRoundRect*
0 Rectangle with rounded corners*
0 $1 Rounding radius*
0 $2 $3 $4 $5 $6 $7 $8 $9 X,Y pos of 4 corners*
0 Add a 4 corners polygon primitive as box body*
4,1,4,$2,$3,$4,$5,$6,$7,$8,$9,$2,$3,0*
0 Add four circle primitives for the rounded corners*
1,1,$1+$1,$2,$3*
1,1,$1+$1,$4,$5*
1,1,$1+$1,$6,$7*
1,1,$1+$1,$8,$9*
0 Add four rect primitives between the rounded corners*
20,1,$1+$1,$2,$3,$4,$5,0*
20,1,$1+$1,$4,$5,$6,$7,0*
20,1,$1+$1,$6,$7,$8,$9,0*
20,1,$1+$1,$8,$9,$2,$3,0*%
G04 Aperture macros list end*
G04 #@! TA.AperFunction,ComponentPad*
%ADD10R,0.850000X0.850000*%
G04 #@! TD*
G04 #@! TA.AperFunction,SMDPad,CuDef*
%ADD11RoundRect,0.625000X-0.625000X-2.375000X0.625000X-2.375000X0.625000X2.375000X-0.625000X2.375000X0*%
G04 #@! TD*
G04 #@! TA.AperFunction,ComponentPad*
%ADD12R,1.700000X1.700000*%
G04 #@! TD*
G04 #@! TA.AperFunction,ComponentPad*
%ADD13O,1.700000X1.700000*%
G04 #@! TD*
G04 #@! TA.AperFunction,ComponentPad*
%ADD14C,1.524000*%
G04 #@! TD*
G04 #@! TA.AperFunction,ComponentPad*
%ADD15R,1.524000X1.524000*%
G04 #@! TD*
G04 #@! TA.AperFunction,ViaPad*
%ADD16C,0.800000*%
G04 #@! TD*
G04 #@! TA.AperFunction,Conductor*
%ADD17C,1.000000*%
G04 #@! TD*
G04 APERTURE END LIST*
D10*
X156464000Y-85852000D03*
D11*
X150000000Y-86000000D03*
X135000000Y-86000000D03*
X120000000Y-86000000D03*
X105000000Y-86000000D03*
D12*
X133407000Y-78105000D03*
D13*
X133407000Y-75565000D03*
X133407000Y-73025000D03*
X133407000Y-70485000D03*
X133407000Y-67945000D03*
X133407000Y-65405000D03*
X133407000Y-62865000D03*
D14*
X152400000Y-72898000D03*
X142240000Y-72898000D03*
X152400000Y-70358000D03*
D15*
X152400000Y-65278000D03*
D14*
X152400000Y-67818000D03*
X152400000Y-75438000D03*
X152400000Y-77978000D03*
X142240000Y-70358000D03*
D15*
X142240000Y-65278000D03*
D14*
X142240000Y-67818000D03*
X142240000Y-75438000D03*
X142240000Y-77978000D03*
D16*
X114300000Y-85852000D03*
X145288000Y-76708000D03*
D17*
X150622000Y-67818000D02*
X152400000Y-67818000D01*
X144272000Y-81280000D02*
X147320000Y-78232000D01*
X133096000Y-81280000D02*
X144272000Y-81280000D01*
X147320000Y-78232000D02*
X147320000Y-71120000D01*
X128376000Y-86000000D02*
X133096000Y-81280000D01*
X147320000Y-71120000D02*
X150622000Y-67818000D01*
X120000000Y-86000000D02*
X128376000Y-86000000D01*
X150114000Y-65278000D02*
X152400000Y-65278000D01*
X145288000Y-76708000D02*
X145288000Y-70104000D01*
X145288000Y-70104000D02*
X150114000Y-65278000D01*
X142113000Y-73025000D02*
X142240000Y-72898000D01*
X133407000Y-73025000D02*
X142113000Y-73025000D01*
X156464000Y-75184000D02*
X156464000Y-85852000D01*
X154178000Y-72898000D02*
X156464000Y-75184000D01*
X152400000Y-72898000D02*
X154178000Y-72898000D01*
X105148000Y-85852000D02*
X114300000Y-85852000D01*
X105000000Y-86000000D02*
X105148000Y-85852000D01*
X135656000Y-85344000D02*
X135000000Y-86000000D01*
X149352000Y-80772000D02*
X144780000Y-85344000D01*
X144780000Y-85344000D02*
X135656000Y-85344000D01*
X149352000Y-76708000D02*
X149352000Y-80772000D01*
X150622000Y-75438000D02*
X149352000Y-76708000D01*
X152400000Y-75438000D02*
X150622000Y-75438000D01*
X133407000Y-78105000D02*
X142113000Y-78105000D01*
X142113000Y-78105000D02*
X142240000Y-77978000D01*
X133407000Y-75565000D02*
X142113000Y-75565000D01*
X142113000Y-75565000D02*
X142240000Y-75438000D01*
X142113000Y-70485000D02*
X142240000Y-70358000D01*
X133407000Y-70485000D02*
X142113000Y-70485000D01*
X142113000Y-67945000D02*
X142240000Y-67818000D01*
X133407000Y-67945000D02*
X142113000Y-67945000D01*
X142113000Y-65405000D02*
X142240000Y-65278000D01*
X133407000Y-65405000D02*
X142113000Y-65405000D01*
X154686000Y-70358000D02*
X152400000Y-70358000D01*
X156464000Y-68580000D02*
X154686000Y-70358000D01*
X156464000Y-64516000D02*
X156464000Y-68580000D01*
X133407000Y-62865000D02*
X154813000Y-62865000D01*
X154813000Y-62865000D02*
X156464000Y-64516000D01*
X152400000Y-77978000D02*
X152400000Y-83600000D01*
X152400000Y-83600000D02*
X150000000Y-86000000D01*
M02*
