M48
; DRILL file {KiCad 7.0.2} date Sun Sep 29 20:12:49 2024
; FORMAT={-:-/ absolute / inch / decimal}
; #@! TF.CreationDate,2024-09-29T20:12:49-04:00
; #@! TF.GenerationSoftware,Kicad,Pcbnew,7.0.2
; #@! TF.FileFunction,MixedPlating,1,2
FMAT,2
INCH
; #@! TA.AperFunction,Plated,PTH,ViaDrill
T1C0.0157
; #@! TA.AperFunction,Plated,PTH,ComponentDrill
T2C0.0197
; #@! TA.AperFunction,Plated,PTH,ComponentDrill
T3C0.0394
; #@! TA.AperFunction,Plated,PTH,ComponentDrill
T4C0.0400
%
G90
G05
T1
X4.5Y-3.38
X5.72Y-3.02
T2
X6.16Y-3.38
T3
X5.2522Y-2.475
X5.2522Y-2.575
X5.2522Y-2.675
X5.2522Y-2.775
X5.2522Y-2.875
X5.2522Y-2.975
X5.2522Y-3.075
T4
X5.6Y-2.57
X5.6Y-2.67
X5.6Y-2.77
X5.6Y-2.87
X5.6Y-2.97
X5.6Y-3.07
X6.0Y-2.57
X6.0Y-2.67
X6.0Y-2.77
X6.0Y-2.87
X6.0Y-2.97
X6.0Y-3.07
T0
M30
